
<svg xmlns="http://www.w3.org/2000/svg" xmlns:xlink="http://www.w3.org/1999/xlink" version="1.1" width="200" height="100" viewBox="0 0 500 500" xml:space="preserve">
<desc>Created with Fabric.js 3.6.3</desc>
<defs>
</defs>

<g transform="matrix(0.82 0 0 0.82 088.3818 249.2464)"  >
<g style=""   >
		<g transform="matrix(1 0 0 1 -128.74357277923866 26.167675070774635)"  >
<path style="stroke: none; stroke-width: 1; stroke-dasharray: none; stroke-linecap: butt; stroke-dashoffset: 0; stroke-linejoin: miter; stroke-miterlimit: 4; fill: rgb(255,157,0); fill-rule: nonzero; opacity: 1;"  transform=" translate(-373.68642722076135, -537.8076750707746)" d="M 459.87 554.46 l -74.39 74.13 a 57.75 57.75 0 0 1 -81.23 0 h 0 a 57.26 57.26 0 0 1 0 -80.93 l 98.75 -99 l 4.4 -4.39 l 14 -13.94" stroke-linecap="round" />
</g>
		<g transform="matrix(1 0 0 1 78.69889337529963 -26.66619108630391)"  >
<path style="stroke: none; stroke-width: 1; stroke-dasharray: none; stroke-linecap: butt; stroke-dashoffset: 0; stroke-linejoin: miter; stroke-miterlimit: 4; fill: rgb(72,202,237); fill-rule: nonzero; opacity: 1;"  transform=" translate(-581.1288933752996, -484.9738089136961)" d="M 445 569.45 c 0.31 -0.41 0.63 -0.83 1 -1.24 l 75.85 -75.58 a 57.33 57.33 0 0 0 4.42 -5 l 93.33 -93 a 57.23 57.23 0 0 1 81.08 80.79 l -85.93 85.61 l -7.61 7.61 l -3.68 3.68 l -16.09 16.06 l -3.66 3.66" stroke-linecap="round" />
</g>
		<g transform="matrix(1 0 0 1 -13.959155670942266 -20.16005085676551)"  >
<path style="stroke: none; stroke-width: 1; stroke-dasharray: none; stroke-linecap: butt; stroke-dashoffset: 0; stroke-linejoin: miter; stroke-miterlimit: 4; fill: rgb(247,60,92); fill-rule: nonzero; opacity: 1;"  transform=" translate(-488.47084432905774, -491.4799491432345)" d="M 505.63 391.48 a 117.15 117.15 0 0 0 -82.83 200 L 588.47 425.79 A 116.79 116.79 0 0 0 505.63 391.48 Z" stroke-linecap="round" />
</g>
		<g transform="matrix(1 0 0 1 20.036916773685164 13.816916773685193)"  >
<path style="stroke: none; stroke-width: 1; stroke-dasharray: none; stroke-linecap: butt; stroke-dashoffset: 0; stroke-linejoin: miter; stroke-miterlimit: 4; fill: rgb(42,139,234); fill-rule: nonzero; opacity: 1;"  transform=" translate(-522.4669167736852, -525.4569167736852)" d="M 588.47 425.79 L 422.8 591.46 A 117.15 117.15 0 0 0 588.47 425.79 Z" stroke-linecap="round" />
</g>
</g>
</g>
   <g transform="matrix(2.5 0 0 2.5 460.105 313.9053000000001)" style="">
        <path
          fill="#ffffff"
          opacity="1"
          d="M-115.69 6.55L-115.69 6.55Q-113.65 6.55-112.51 6.34Q-111.36 6.14-110.78 5.82Q-110.19 5.50-110.04 5.10Q-109.89 4.71-109.89 4.37L-109.89 4.37Q-109.89 3.69-110.21 3.30Q-110.53 2.90-111.23 2.68Q-111.92 2.45-113.07 2.36Q-114.22 2.26-115.84 2.22L-115.84 2.22Q-116.78 2.19-118.06 2.11Q-119.33 2.04-120.69 1.79Q-122.04 1.55-123.36 1.08Q-124.68 0.61-125.71-0.24Q-126.75-1.09-127.39-2.36Q-128.02-3.64-128.02-5.49L-128.02-5.49L-128.02-5.98Q-128.02-7.59-127.44-9.08Q-126.86-10.57-125.45-11.69Q-124.04-12.82-121.65-13.48Q-119.26-14.14-115.69-14.14L-115.69-14.14L-114.33-14.14Q-111.74-14.14-109.29-13.82Q-106.84-13.50-104.51-12.90L-104.51-12.90L-104.51-6.69Q-107.26-7.33-109.95-7.71Q-112.64-8.08-115.42-8.08L-115.42-8.08Q-117.45-8.08-118.62-7.88Q-119.79-7.67-120.37-7.35Q-120.95-7.03-121.10-6.67Q-121.25-6.31-121.25-5.98L-121.25-5.98Q-121.25-5.30-120.93-4.89Q-120.61-4.47-119.90-4.25Q-119.18-4.02-118.06-3.93Q-116.93-3.83-115.35-3.79L-115.35-3.79Q-114.44-3.76-113.20-3.70Q-111.96-3.64-110.59-3.40Q-109.21-3.15-107.88-2.67Q-106.54-2.18-105.49-1.33Q-104.44-0.48-103.78 0.81Q-103.12 2.11-103.12 3.96L-103.12 3.96L-103.12 4.44Q-103.12 6.06-103.70 7.53Q-104.29 9.00-105.72 10.13Q-107.15 11.25-109.52 11.91Q-111.89 12.57-115.50 12.57L-115.50 12.57L-116.85 12.57Q-119.82 12.57-122.63 12.25Q-125.43 11.93-128.14 11.37L-128.14 11.37L-128.14 5.05Q-125.09 5.72-121.84 6.14Q-118.58 6.55-115.69 6.55Z"
        />
        <path
          fill="#ffffff"
          opacity="1"
          d="M-73.25-13.39L-66.48-13.39L-66.48 1.32Q-66.48 3.65-67.08 5.69Q-67.68 7.72-69.15 9.26Q-70.62 10.80-73.10 11.69Q-75.58 12.57-79.34 12.57L-79.34 12.57L-80.70 12.57Q-84.46 12.57-86.94 11.69Q-89.43 10.80-90.89 9.26Q-92.36 7.72-92.96 5.69Q-93.57 3.65-93.57 1.32L-93.57 1.32L-93.57-13.39L-86.79-13.39L-86.79 0.34Q-86.79 1.59-86.68 2.70Q-86.57 3.80-85.95 4.67Q-85.33 5.54-83.95 6.04Q-82.58 6.55-80.02 6.55L-80.02 6.55Q-77.50 6.55-76.11 6.04Q-74.72 5.54-74.10 4.67Q-73.48 3.80-73.36 2.70Q-73.25 1.59-73.25 0.34L-73.25 0.34L-73.25-13.39Z"
        />
        <path
          fill="#ffffff"
          opacity="1"
          d="M-56.55 11.82L-56.55-13.39Q-53.31-13.76-49.76-13.95Q-46.20-14.14-42.78-14.14L-42.78-14.14L-41.72-14.14Q-38.56-14.14-36.50-13.54Q-34.43-12.94-33.18-11.92Q-31.94-10.90-31.45-9.53Q-30.97-8.16-30.97-6.62L-30.97-6.62L-30.97-5.86Q-30.97-4.21-31.94-2.85Q-32.92-1.50-35.44-0.82L-35.44-0.82Q-33.97-0.48-32.96 0.04Q-31.94 0.57-31.34 1.25Q-30.74 1.92-30.48 2.70Q-30.21 3.47-30.21 4.29L-30.21 4.29L-30.21 5.05Q-30.21 6.59-30.74 7.96Q-31.27 9.34-32.58 10.35Q-33.90 11.37-36.12 11.97Q-38.34 12.57-41.72 12.57L-41.72 12.57L-42.78 12.57Q-46.20 12.57-49.76 12.38Q-53.31 12.19-56.55 11.82L-56.55 11.82ZM-42.63-8.12L-42.63-8.12Q-44.02-8.12-45.96-8.05Q-47.89-7.97-49.78-7.78L-49.78-7.78L-49.78-3.61L-43.08-3.61Q-40.78-3.61-39.54-3.78Q-38.30-3.94-37.74-4.25Q-37.17-4.55-37.08-4.96Q-36.98-5.37-36.98-5.86L-36.98-5.86Q-36.98-6.31-37.10-6.73Q-37.21-7.14-37.76-7.46Q-38.30-7.78-39.45-7.95Q-40.60-8.12-42.63-8.12ZM-43.08 2.41L-49.78 2.41L-49.78 6.21Q-47.89 6.40-45.96 6.48Q-44.02 6.55-42.51 6.55L-42.51 6.55Q-40.26 6.55-39.00 6.38Q-37.74 6.21-37.12 5.89Q-36.50 5.57-36.36 5.16Q-36.23 4.75-36.23 4.29L-36.23 4.29Q-36.23 3.92-36.34 3.56Q-36.46 3.20-37.10 2.96Q-37.74 2.71-39.13 2.56Q-40.52 2.41-43.08 2.41L-43.08 2.41Z"
        />
        <path
          fill="#ffffff"
          opacity="1"
          d="M-21.30 6.55L-6.59-7.37L-20.92-7.37L-20.92-13.39L2.44-13.39L2.44-8.12L-12.27 5.80L2.82 5.80L2.82 11.82L-21.30 11.82L-21.30 6.55Z"
        />
        <path
          fill="#ffffff"
          opacity="1"
          d="M11.47 6.55L26.18-7.37L11.85-7.37L11.85-13.39L35.21-13.39L35.21-8.12L20.50 5.80L35.58 5.80L35.58 11.82L11.47 11.82L11.47 6.55Z"
        />
      </g>
</svg>